<?xml version="1.0" encoding="utf-8"?>
<!-- Generator: Adobe Illustrator 24.1.0, SVG Export Plug-In . SVG Version: 6.00 Build 0)  -->
<svg version="1.1" id="S_TextSize_Md_N_2x" xmlns="http://www.w3.org/2000/svg" xmlns:xlink="http://www.w3.org/1999/xlink" x="0px"
	 y="0px" viewBox="0 0 36 36" style="enable-background:new 0 0 36 36;" xml:space="preserve">
<style type="text/css">
	.st0{fill-rule:evenodd;clip-rule:evenodd;enable-background:new    ;}
</style>
<path class="st0" d="M35,4c0.6,0,1,0.4,1,1v6c0,0.6-0.4,1-1,1h-2c-0.6,0-1-0.4-1-1V8h-6v20h3c0.6,0,1,0.4,1,1v2c0,0.6-0.4,1-1,1H17
	c-0.6,0-1-0.4-1-1v-2c0-0.6,0.4-1,1-1h3V8h-6v3c0,0.6-0.4,1-1,1h-2c-0.6,0-1-0.4-1-1V5c0-0.6,0.4-1,1-1H35z"/>
<path class="st0" d="M15.5,16c0.3,0,0.5,0.2,0.5,0.5v3c0,0.3-0.2,0.5-0.5,0.5h-1c-0.3,0-0.5-0.2-0.5-0.5V18h-4v12h1.5
	c0.3,0,0.5,0.2,0.5,0.5v1c0,0.3-0.2,0.5-0.5,0.5h-7C4.2,32,4,31.8,4,31.5v-1C4,30.2,4.2,30,4.5,30H6V18H2v1.5C2,19.7,1.8,20,1.5,20
	h-1C0.2,20,0,19.7,0,19.5v-3C0,16.2,0.2,16,0.5,16H15.5z"/>
</svg>
