<?xml version="1.0" encoding="utf-8"?>
<!-- Generator: Adobe Illustrator 24.1.0, SVG Export Plug-In . SVG Version: 6.00 Build 0)  -->
<svg version="1.1" id="S_Width_Md_N_2x" xmlns="http://www.w3.org/2000/svg" xmlns:xlink="http://www.w3.org/1999/xlink" x="0px"
	 y="0px" viewBox="0 0 36 36" style="enable-background:new 0 0 36 36;" xml:space="preserve">
<style type="text/css">
	.st0{fill-rule:evenodd;clip-rule:evenodd;enable-background:new    ;}
</style>
<path id="Fill" class="st0" d="M30,17l-7.2-4.9c-0.2-0.1-0.5-0.1-0.7,0.2c0,0.1-0.1,0.2-0.1,0.3V16h-8v-3.5c0-0.3-0.2-0.5-0.5-0.5
	c-0.1,0-0.2,0-0.3,0.1L6,17l7.2,4.9c0.2,0.1,0.5,0.1,0.7-0.2c0-0.1,0.1-0.2,0.1-0.3V18h8v3.5c0,0.3,0.2,0.5,0.5,0.5
	c0.1,0,0.2,0,0.3-0.1L30,17z"/>
<path id="Fill2" class="st0" d="M31.5,10h-1c-0.3,0-0.5,0.2-0.5,0.5v13c0,0.3,0.2,0.5,0.5,0.5h1c0.3,0,0.5-0.2,0.5-0.5v-13
	C32,10.2,31.8,10,31.5,10z"/>
<path id="Fill3" class="st0" d="M5.5,10h-1C4.2,10,4,10.2,4,10.5v13C4,23.8,4.2,24,4.5,24h1C5.8,24,6,23.8,6,23.5v-13
	C6,10.2,5.8,10,5.5,10z"/>
</svg>
